<?xml version="1.0" encoding="utf-8"?>
<!-- Generator: Adobe Illustrator 14.0.0, SVG Export Plug-In . SVG Version: 6.00 Build 43363)  -->
<!DOCTYPE svg PUBLIC "-//W3C//DTD SVG 1.1//EN" "http://www.w3.org/Graphics/SVG/1.1/DTD/svg11.dtd">
<svg version="1.1"
	 id="Layer_1" inkscape:output_extension="org.inkscape.output.svg.inkscape" xmlns:cc="http://web.resource.org/cc/" xmlns:rdf="http://www.w3.org/1999/02/22-rdf-syntax-ns#" xmlns:svg="http://www.w3.org/2000/svg" xmlns:sodipodi="http://sodipodi.sourceforge.net/DTD/sodipodi-0.dtd" xmlns:inkscape="http://www.inkscape.org/namespaces/inkscape" xmlns:dc="http://purl.org/dc/elements/1.1/" sodipodi:version="0.32" inkscape:version="0.45.1" sodipodi:docbase="/Users/johnolsen/Desktop/openclipart-0.20-pre/recovered-zerobyte-files/unsorted" sodipodi:docname="lucchetto_ottone_archit_02r.svg"
	 xmlns="http://www.w3.org/2000/svg" xmlns:xlink="http://www.w3.org/1999/xlink" x="0px" y="0px" width="150px" height="150px"
	 viewBox="-21.313 -5.751 150 150" enable-background="new -21.313 -5.751 150 150" xml:space="preserve">
<sodipodi:namedview  id="base" inkscape:cy="69.249001" inkscape:cx="53.686501" inkscape:zoom="2.5993155" pagecolor="#ffffff" bordercolor="#666666" borderopacity="1.0" inkscape:current-layer="Layer_1" inkscape:window-y="29" inkscape:window-x="22" inkscape:pageopacity="0.0" inkscape:pageshadow="2" inkscape:window-width="787" inkscape:window-height="510">
	</sodipodi:namedview>
<g id="g3">
	<path id="path5" fill="#FFE600" d="M54.757,61.18c0-1.062-1.443-1.016-2.15-0.79c-0.098,1.213,1.243,0.958-0.016,2.763
		C53.692,62.862,54.415,62.203,54.757,61.18"/>
	<path id="path7" fill="#E5E5E5" d="M33.463,37.514c0-7.261,1.527-16.303,8.889-19.698c4.861-2.24,13.018-2.063,18.239-1.028
		c14.832,2.936,12.473,22.021,12.473,33.375c0,5.101-1.444,6.402,3.713,6.402c1.22,0,14.086,0.146,14.086-0.139
		c0-10.168,1.521-21.672-0.756-31.662c-7.526-33.018-66.112-33.018-73.641,0c-2.277,9.99-0.755,21.494-0.755,31.662
		c0,0.287,11.615,0.139,12.679,0.139c6.193,0,5.073-0.207,5.073-6.402C33.463,45.946,33.463,41.729,33.463,37.514"/>
	<path id="path9" fill="#C6C6C6" d="M71.7,19.941c-4.35-6.429-9.086-6.406-16.307-5.826c-7.103,0.572-15.803,0.732-19.791,7.71
		c-3.052,5.339-3.759,11.359-4.296,17.332c-0.289,3.198-0.555,6.421-1.109,9.585c-0.706,4.005-3.457,3.632-5.963,5.811
		c3.262,0.023,6.525,0.046,9.787,0.07c0-7.52-0.462-15.184,0.083-22.688c1.012-13.883,13.316-17.22,25.257-15.495
		c13.732,1.982,13.963,14.593,13.963,25.635c0,4.129,0,8.257,0,12.384c0,0.657,8.205,4.556,8.205-0.422
		c-6.299,0.091-6.443-9.898-6.428-14.154C75.133,32.24,76.124,26.969,71.7,19.941"/>
	
		<linearGradient id="path16_1_" gradientUnits="userSpaceOnUse" x1="-506.6211" y1="4.0703" x2="-504.6687" y2="4.0703" gradientTransform="matrix(76.2002 76.2007 -76.2007 76.2002 38886.0469 38249.5)">
		<stop  offset="0" style="stop-color:#FFFFFF"/>
		<stop  offset="1" style="stop-color:#000000"/>
	</linearGradient>
	<path id="path16" fill="url(#path16_1_)" d="M47.417,0.296c-17.391,0-31.715,14.199-31.715,31.575
		c0,3.959-1.722,24.911,1.53,24.911c5.437,0,10.874,0,16.31,0c1.553,0,0.709-11.14,0.709-12.877c0-12.75,0.771-27.244,16.906-27.244
		c5.92,0,12.296-0.561,16.8,4.094c4.868,5.029,5.099,12.504,5.099,19.08c0,5.429,0,10.856,0,16.283
		c0,1.453,11.545,0.665,13.279,0.665c5.049,0,5.313,0.984,5.313-3.971c0-6.198,0-12.394,0-18.592
		c0-15.775-8.866-29.835-25.06-33.235C60.403-0.315,53.698,0.296,47.417,0.296 M16.495,31.37c0-35.45,57.622-41.998,71.48-12.795
		c5.01,10.554,2.879,24.71,2.879,36.059c0,3.021-8.367,1.455-10.916,1.455c-7.125,0-6.088-0.091-6.088-7.175
		c0-12.017,1.713-31.33-14.634-32.86c-5.098-0.476-11.916-0.85-16.625,1.318c-7.579,3.485-9.14,12.727-9.14,20.196
		c0,5.211,0,10.425,0,15.638c0,5.167-6.429,2.883-10.882,2.883c-5.833,0-6.076,0.979-6.076-4.8c0-6.232,0-12.465,0-18.698
		C16.495,32.185,16.495,31.776,16.495,31.37"/>
	<path id="path18" fill="#C6C6C6" d="M74.351,8.301c2.25,7.692-11.32-0.589-14.914-1.01c-5.728-0.67-11.808,0.859-17.245,2.53
		c-2.785,0.854-7.215,3.352-10.229,2.701c-2.083-0.451-0.345-3.624,0.497-4.429c3.296-3.156,8.569-4.389,12.929-4.959
		C50.449,2.471,72.201,0.941,74.351,8.301"/>
	<path id="path20" fill="#FFFFFF" d="M19.794,29.649c-0.808,5.069-0.499,10.577-0.188,15.674c0.077,1.288,2.007,8.92,3.256,3.89
		c1.197-4.824,0.083-10.516-0.307-15.388c-0.136-1.734,1.462-14.972,2.432-14.509C22.352,18.063,19.984,28.451,19.794,29.649"/>
	<path id="path22" fill="#FFFFFF" d="M71.133,16.734c1.757,1.653,3.757,3.805,4.546,6.142c0.904,2.672-1.422,3.55-2.854,1.33
		c-1.643-2.551-2.668-5.846-5.102-7.792c-0.608-0.487-5.85-3.023-5.716-3.788C62.435,10.227,70.638,16.267,71.133,16.734"/>
	<path id="path24" fill="#FFFFFF" d="M57.991,3.386c-0.667,1.449-3.473,1.021-4.687,1.106c-4.558,0.318-9.06,1.457-13.033,3.749
		c-1.651,0.952-10.735,9.619-12.53,8.196C22.069,11.93,34.779,5.38,37.169,4.55C38.543,4.072,59.081,1.024,57.991,3.386"/>
	<path id="path26" fill="#FFFFFF" d="M84.633,15.285c1.854,3.186,8.464,17.998,3.315,20.747c-2.18,1.163-3.84-12.51-4.434-14.133
		c-1.434-3.927-3.298-6.686-6.969-8.79c-1.846-1.058-6.355-2.05-7.355-4.117c-1.556-3.215,5.488-2.769,6.771-2.148
		C79.499,8.559,82.671,11.913,84.633,15.285"/>
	
		<linearGradient id="path41_1_" gradientUnits="userSpaceOnUse" x1="7.3921" y1="41.52" x2="103.5606" y2="44.3771" gradientTransform="matrix(1 0 0 -1 0 138.498)">
		<stop  offset="0" style="stop-color:#FFD53D"/>
		<stop  offset="0.3017" style="stop-color:#FDD33A"/>
		<stop  offset="0.5348" style="stop-color:#F6CB30"/>
		<stop  offset="0.7449" style="stop-color:#EABE20"/>
		<stop  offset="0.9404" style="stop-color:#DAAC09"/>
		<stop  offset="1" style="stop-color:#D4A500"/>
	</linearGradient>
	<path id="path41" fill="url(#path41_1_)" d="M106.442,119.543c0,15.563-16.803,17.455-28.827,17.455c-11.972,0-23.946,0-35.917,0
		c-10.132,0-22.237,1.413-31.599-2.989c-11.418-5.369-9.194-18.338-9.194-28.765C0.905,94.79,0.491,84.24,1,73.79
		c0.654-13.485,6.923-19.35,20.005-19.35c22.164,0,44.33,0,66.495,0c16.627,0,18.942,12.089,18.942,26.368
		C106.442,93.72,106.442,106.632,106.442,119.543"/>
	<path id="path43" fill="#FFE45C" d="M94.229,106.979c3.975,0.197,1.291,5.347,0.111,6.99c-4.355,6.094-11.635,10.018-18.533,12.465
		c-12.175,4.317-25.604,4.537-38.267,2.61c-7.056-1.071-24.077-3.506-26.72-12.03c-3.099-10.002,15.294-4.392,18.506-3.342
		c12.626,4.135,24.352,6.559,37.719,5.116c6.896-0.746,14.029-2.416,19.5-6.912C88.804,110.024,90.976,106.813,94.229,106.979"/>
	<path id="path45" fill="#C79C00" d="M100.259,88.635c0,3.884,0.879,13.111-2.885,15.984c-2.182,1.664-3.93-1.259-4.48-3.015
		c-4.209-13.383,3.196-27.977-10.471-37.687c-1.68-1.194-5.415-2.291-6.503-4.09c-1.083-1.788,5.825-2.245,6.531-2.177
		C96.74,58.992,100.259,77.244,100.259,88.635"/>
	<path id="path47" fill="#FFE45C" d="M11.523,72.528C9.889,80.405,9.367,89.54,12.507,97.13c2.238,5.411,9.856,11.732,15.704,7.029
		c8.309-6.682,1.356-27.023,13.844-29.855c6.815-1.545,14.532-0.933,20.396-5.484c3.733-2.899,1.795-6.182-1.884-7.875
		C47.993,55.157,15.237,54.652,11.523,72.528"/>
	<path id="path49" fill="#FFC800" d="M9.031,127.001c0-12.627,0-25.254,0-37.881c0-13.418-0.844-31.963,17.216-31.963
		c24.504,0,49.007,0,73.511,0c-4.673-3.345-10.843-2.717-16.301-2.717c-7.783,0-15.567,0-23.354,0c-14.111,0-28.224,0-42.335,0
		c-19.283,0-16.862,21.032-16.862,34.84c0,12.785-5.038,38.213,9.402,44.822C9.403,131.851,9.031,129.42,9.031,127.001"/>
	<path id="path51" fill="#FFB600" d="M89.772,54.44c-20.578,0-41.154,0-61.733,0c-8.29,0-19.589-1.701-24.273,6.911
		c-4.839,8.896-2.861,22.673-2.861,32.56c0,9.431-2.283,22.322,0.923,31.449c4.283,12.189,20.083,11.639,30.735,11.639
		c12.453,0,24.905,0,37.358,0c10.37,0,23.576,1.564,31.793-5.912c8.771-7.98,4.729-29.889,4.729-40.305
		C106.442,77.067,109.278,54.44,89.772,54.44 M103.204,110.74c0,28.007-41.422,21.026-59.807,21.026
		c-9.479,0-21.106,1.452-29.939-2.511C1.261,123.784,3.144,109.362,3.144,98.3c0-10.146-1.815-22.972,1.312-32.82
		c3.657-11.517,15.991-10.23,25.699-10.23c12.783,0,25.563,0,38.347,0c8.824,0,21.707-1.861,28.947,3.919
		c6.776,5.41,5.286,15.995,5.388,23.759C102.96,92.198,103.082,101.469,103.204,110.74"/>
	
		<linearGradient id="path58_1_" gradientUnits="userSpaceOnUse" x1="-504.5703" y1="1.6328" x2="-502.566" y2="1.6328" gradientTransform="matrix(0 126.6817 -126.6817 0 260.4862 63964.9961)">
		<stop  offset="0" style="stop-color:#DF9000"/>
		<stop  offset="1" style="stop-color:#9F7800"/>
	</linearGradient>
	<path id="path58" fill="url(#path58_1_)" d="M17.332,53.535C0.918,53.535,0,69.008,0,81.737c0,11.677,0,23.353,0,35.029
		c0,26.764,34.278,21.139,52.85,21.139c17.913,0,54.497,6.021,54.497-20.328c0-11.6,0-23.202,0-34.803
		c0-10.899,0.524-26.337-13.127-28.859c-12.377-2.288-26.529-0.38-39.023-0.38C42.575,53.535,29.953,53.535,17.332,53.535
		 M1.811,119.543c0-10.087,0-20.175,0-30.263c0-9.396-2.441-24.733,5.753-31.166c5.818-4.566,17.395-2.77,24.321-2.77
		c13.035,0,26.071,0,39.106,0c7.541,0,17.103-1.443,24.492,0.734c11.836,3.489,10.054,19.266,10.054,29.061
		c0,11.223,0,22.444,0,33.668c0,14.442-14.181,17.284-25.958,17.284c-14.053,0-28.103,0-42.153,0
		C24.562,136.093,1.811,137.776,1.811,119.543"/>
</g>
</svg>
