<?xml version="1.0" encoding="UTF-8" standalone="no"?>
<!-- Created with Inkscape (http://www.inkscape.org/) -->
<svg
   xmlns:dc="http://purl.org/dc/elements/1.1/"
   xmlns:cc="http://web.resource.org/cc/"
   xmlns:rdf="http://www.w3.org/1999/02/22-rdf-syntax-ns#"
   xmlns:svg="http://www.w3.org/2000/svg"
   xmlns="http://www.w3.org/2000/svg"
   xmlns:xlink="http://www.w3.org/1999/xlink"
   xmlns:sodipodi="http://sodipodi.sourceforge.net/DTD/sodipodi-0.dtd"
   xmlns:inkscape="http://www.inkscape.org/namespaces/inkscape"
   width="632.84937"
   height="510.8382"
   id="svg2"
   sodipodi:version="0.32"
   inkscape:version="0.45.1"
   sodipodi:docname="moanin_a_safe_una_cassaforte.svg"
   inkscape:output_extension="org.inkscape.output.svg.inkscape"
   sodipodi:docbase="/Users/johnolsen/Desktop"
   version="1.0">
  <defs
     id="defs4">
    <linearGradient
       id="linearGradient3410">
      <stop
         style="stop-color:#faf5e3;stop-opacity:1;"
         offset="0"
         id="stop3412" />
      <stop
         style="stop-color:#faf5e3;stop-opacity:0;"
         offset="1"
         id="stop3414" />
    </linearGradient>
    <linearGradient
       inkscape:collect="always"
       id="linearGradient2838">
      <stop
         style="stop-color:#ac9d93;stop-opacity:1;"
         offset="0"
         id="stop2840" />
      <stop
         style="stop-color:#ac9d93;stop-opacity:0;"
         offset="1"
         id="stop2842" />
    </linearGradient>
    <linearGradient
       inkscape:collect="always"
       id="linearGradient2830">
      <stop
         style="stop-color:#e3dedb;stop-opacity:1;"
         offset="0"
         id="stop2832" />
      <stop
         style="stop-color:#e3dedb;stop-opacity:0;"
         offset="1"
         id="stop2834" />
    </linearGradient>
    <linearGradient
       inkscape:collect="always"
       id="linearGradient2822">
      <stop
         style="stop-color:#c8beb7;stop-opacity:1;"
         offset="0"
         id="stop2824" />
      <stop
         style="stop-color:#c8beb7;stop-opacity:0;"
         offset="1"
         id="stop2826" />
    </linearGradient>
    <linearGradient
       inkscape:collect="always"
       xlink:href="#linearGradient2830"
       id="linearGradient4603"
       gradientUnits="userSpaceOnUse"
       x1="323.24881"
       y1="574.45038"
       x2="595.98999"
       y2="552.42773" />
    <linearGradient
       inkscape:collect="always"
       xlink:href="#linearGradient2822"
       id="linearGradient4605"
       gradientUnits="userSpaceOnUse"
       gradientTransform="matrix(0.9374704,-3.9511116e-2,4.0448674e-2,0.9270049,314.9953,-203.72811)"
       x1="-114.27489"
       y1="875.08838"
       x2="-20.740862"
       y2="1117.606" />
    <linearGradient
       inkscape:collect="always"
       xlink:href="#linearGradient2838"
       id="linearGradient4607"
       gradientUnits="userSpaceOnUse"
       gradientTransform="translate(0.3063919,-1.0378483)"
       x1="501.13028"
       y1="461.42297"
       x2="547.50275"
       y2="682.67407" />
    <linearGradient
       inkscape:collect="always"
       xlink:href="#linearGradient3410"
       id="linearGradient4609"
       gradientUnits="userSpaceOnUse"
       gradientTransform="matrix(0.9221616,0,0,0.9039182,-155.91279,200.21148)"
       x1="277.40793"
       y1="682.8418"
       x2="274.63229"
       y2="705.20166" />
    <linearGradient
       inkscape:collect="always"
       xlink:href="#linearGradient3410"
       id="linearGradient4653"
       gradientUnits="userSpaceOnUse"
       gradientTransform="matrix(0.9221616,0,0,0.9039182,-155.91279,200.21148)"
       x1="277.40793"
       y1="682.8418"
       x2="274.63229"
       y2="705.20166" />
    <linearGradient
       inkscape:collect="always"
       xlink:href="#linearGradient3410"
       id="linearGradient4657"
       gradientUnits="userSpaceOnUse"
       gradientTransform="matrix(0.7632797,-6.3116771e-2,6.1868113e-2,0.7481795,-366.1458,71.686006)"
       x1="277.40793"
       y1="682.8418"
       x2="274.63229"
       y2="705.20166" />
    <filter
       inkscape:collect="always"
       id="filter4724">
      <feGaussianBlur
         inkscape:collect="always"
         stdDeviation="0.59538969"
         id="feGaussianBlur4726" />
    </filter>
  </defs>
  <sodipodi:namedview
     id="base"
     pagecolor="#ffffff"
     bordercolor="#666666"
     borderopacity="1.0"
     inkscape:pageopacity="0.0"
     inkscape:pageshadow="2"
     inkscape:zoom="0.7"
     inkscape:cx="632.25325"
     inkscape:cy="441.65242"
     inkscape:document-units="px"
     inkscape:current-layer="layer1"
     inkscape:window-width="1280"
     inkscape:window-height="974"
     inkscape:window-x="0"
     inkscape:window-y="22"
     showguides="true"
     inkscape:guide-bbox="true" />
  <metadata
     id="metadata7">
    <rdf:RDF>
      <cc:Work
         rdf:about="">
        <dc:format>image/svg+xml</dc:format>
        <dc:type
           rdf:resource="http://purl.org/dc/dcmitype/StillImage" />
      </cc:Work>
    </rdf:RDF>
  </metadata>
  <g
     inkscape:label="Livello 1"
     inkscape:groupmode="layer"
     id="layer1"
     transform="translate(-54.231184,-304.75078)">
    <g
       transform="matrix(1.8582538,0,0,1.8582538,-540.53577,-1044.6846)"
       id="g4661"
       style="fill:#000000;fill-opacity:1;stroke:none;filter:url(#filter4724)"
       inkscape:export-filename="C:\Users\utente\Desktop\cassaforte.png"
       inkscape:export-xdpi="77"
       inkscape:export-ydpi="77">
      <g
         id="g4663"
         transform="matrix(1.0030239,2.6765354e-2,5.5408952e-2,0.9984637,61.8979,180.13404)"
         style="fill:#000000;fill-opacity:1;stroke:none">
        <path
           style="fill:#000000;fill-opacity:1;fill-rule:evenodd;stroke:none;stroke-width:10;stroke-linecap:butt;stroke-linejoin:miter;stroke-miterlimit:4;stroke-dasharray:none;stroke-opacity:1"
           d="M 311.67757,561.44384 C 305.67236,590.27583 294.93899,752.25688 306.52839,756.08641 C 318.1178,759.91594 530.11618,770.09568 538.45448,764.04627 C 546.79276,757.99686 567.64388,562.73168 555.94127,556.04724 C 544.23866,549.36281 316.36852,535.52333 311.67757,561.44384 z "
           id="path4665" />
        <path
           id="path4667"
           d="M 232.5698,606.02946 C 226.56459,634.86146 215.83122,796.8425 227.42063,800.67203 C 239.01003,804.50156 451.00842,814.68131 459.3467,808.6319 C 467.68499,802.58249 488.53611,607.31729 476.8335,600.63286 C 465.1309,593.94842 237.26076,580.10896 232.5698,606.02946 z "
           style="fill:#000000;fill-opacity:1;fill-rule:evenodd;stroke:none;stroke-width:10;stroke-linecap:butt;stroke-linejoin:miter;stroke-miterlimit:4;stroke-dasharray:none;stroke-opacity:1" />
        <path
           id="path4669"
           d="M 236.37337,600.61339 C 236.37337,600.61339 296.42339,559.81628 319.47856,554.8583 C 342.53373,549.90032 331.55084,553.36866 331.55084,553.36866"
           style="fill:#000000;fill-opacity:1;fill-rule:evenodd;stroke:none;stroke-width:9;stroke-linecap:butt;stroke-linejoin:miter;stroke-miterlimit:4;stroke-dasharray:none;stroke-opacity:1" />
        <path
           sodipodi:nodetypes="ccsscccccscsssscc"
           id="path4671"
           d="M 347.62501,553.94435 C 346.7077,554.46678 314.59306,559.52984 314.06638,560.07902 C 300.83204,565.96636 268.20098,585.89656 266.67452,587.87036 C 265.57319,589.29442 269.00533,589.37013 279.47793,588.17581 C 287.34557,587.27859 300.04261,586.29704 307.7261,585.99236 L 321.71511,585.43766 L 321.71139,585.34399 C 322.45725,585.33191 371.35334,585.94162 405.76078,587.42346 C 412.81519,588.16412 422.56542,587.51844 429.16319,588.30767 C 436.12248,590.41672 440.30946,591.3311 438.03315,589.58223 C 437.92808,589.50149 437.82078,589.42399 437.67976,589.34604 C 459.10812,592.06802 475.34797,594.78257 476.83351,596.39401 C 477.11798,596.70256 478.47133,596.08107 479.84285,594.99241 C 487.22249,589.13467 517.65381,568.42481 525.36969,564.008 C 530.28782,561.19271 534.31639,558.57259 534.30332,558.21198 C 534.24894,556.71063 483.1801,553.99491 445.69762,552.63181 C 417.46823,552.43311 398.91626,551.92987 347.62501,553.94435 z "
           style="opacity:1;fill:#000000;fill-opacity:1;stroke:none;stroke-width:9;stroke-linecap:round;stroke-miterlimit:4;stroke-dasharray:none;stroke-dashoffset:28.7999978;stroke-opacity:1" />
        <path
           style="fill:#000000;fill-opacity:1;fill-rule:evenodd;stroke:none;stroke-width:7.59591484;stroke-linecap:butt;stroke-linejoin:miter;stroke-miterlimit:4;stroke-dasharray:none;stroke-opacity:1"
           d="M 479.52106,597.82532 C 479.52106,597.82532 529.23985,562.21348 548.11639,557.90309 C 566.99291,553.59269 557.9787,556.6137 557.9787,556.6137"
           id="path4673" />
        <path
           id="path4675"
           d="M 462.51147,809.14094 C 462.51147,809.14094 517.21175,784.33453 531.99954,770.91209 C 546.78737,757.48965 539.10064,763.48083 539.10064,763.48083"
           style="fill:#000000;fill-opacity:1;fill-rule:evenodd;stroke:none;stroke-width:6.80364895;stroke-linecap:butt;stroke-linejoin:miter;stroke-miterlimit:4;stroke-dasharray:none;stroke-opacity:1" />
        <path
           id="path4677"
           d="M 552.8125,562.15625 C 546.6723,562.33677 521.3145,576.05221 498.3125,591.625 L 485.40625,600.375 L 486.09375,613.71875 C 487.35546,638.37545 481.57899,709.06432 474.15625,760.53125 C 473.83264,761.24433 473.59941,762.18689 473.5625,763.09375 C 473.46189,765.56516 467.12103,796.17902 465.46875,802.15625 C 464.91378,804.16385 467.25165,803.40197 476.53125,798.59375 C 492.64831,790.24282 524.02139,772.22941 529.625,768.09375 L 533.71875,765.0625 L 533.875,765.0625 L 533.90625,764.90625 L 534.21875,764.6875 L 533.96875,764.65625 L 536.34375,753.5625 C 545.35107,711.45467 555.87499,610.54329 555,574.6875 C 554.71807,563.13474 554.51881,562.10611 552.8125,562.15625 z "
           style="opacity:1;fill:#000000;fill-opacity:1;stroke:none;stroke-width:9;stroke-linecap:round;stroke-miterlimit:4;stroke-dasharray:none;stroke-dashoffset:28.7999978;stroke-opacity:1" />
        <path
           style="fill:#000000;fill-opacity:1;fill-rule:evenodd;stroke:none;stroke-width:10;stroke-linecap:butt;stroke-linejoin:miter;stroke-miterlimit:4;stroke-dasharray:none;stroke-opacity:1"
           d="M 237.72165,614.80676 C 232.1811,641.57483 222.63976,791.89724 233.52705,795.41855 C 244.41434,798.93986 443.37356,807.80196 451.17789,802.1661 C 458.98219,796.53025 477.90846,615.29754 466.9056,609.12763 C 455.90274,602.95773 242.0385,590.74371 237.72165,614.80676 z "
           id="path4679" />
        <path
           id="path4681"
           d="M 553.11889,561.1184 C 546.97869,561.29892 521.62089,575.01436 498.61889,590.58715 L 485.71264,599.33715 L 486.40014,612.6809 C 487.66185,637.3376 481.88538,708.02647 474.46264,759.4934 C 474.13903,760.20648 473.9058,761.14904 473.86889,762.0559 C 473.76828,764.52731 467.42742,795.14117 465.77514,801.1184 C 465.22017,803.126 467.55804,802.36412 476.83764,797.5559 C 492.9547,789.20497 524.32778,771.19156 529.93139,767.0559 L 534.02514,764.02465 L 534.18139,764.02465 L 534.21264,763.8684 L 534.52514,763.64965 L 534.27514,763.6184 L 536.65014,752.52465 C 545.65746,710.41682 556.18138,609.50544 555.30639,573.64965 C 555.02446,562.09689 554.8252,561.06826 553.11889,561.1184 z "
           style="opacity:1;fill:#000000;fill-opacity:1;stroke:none;stroke-width:9;stroke-linecap:round;stroke-miterlimit:4;stroke-dasharray:none;stroke-dashoffset:28.7999978;stroke-opacity:1" />
      </g>
      <path
         id="path4683"
         d="M 352.55897,815.994 C 349.14021,838.10706 347.75703,962.81609 356.90032,966.00929 C 366.04359,969.2025 530.73382,981.43688 536.93533,976.94357 C 543.13685,972.45024 550.93459,822.27937 541.5814,816.88192 C 532.22822,811.48448 355.08405,796.0993 352.55897,815.994 z "
         style="fill:#000000;fill-opacity:1;fill-rule:evenodd;stroke:none;stroke-width:7.72455597;stroke-linecap:butt;stroke-linejoin:miter;stroke-miterlimit:4;stroke-dasharray:none;stroke-opacity:1" />
    </g>
    <g
       style="fill:#ffffff;fill-opacity:1;stroke:none;filter:url(#filter4724)"
       id="g4728"
       transform="matrix(1.8582538,0,0,1.8582538,-540.53577,-1044.6846)"
       inkscape:export-filename="C:\Users\utente\Desktop\cassaforte.png"
       inkscape:export-xdpi="77"
       inkscape:export-ydpi="77">
      <g
         style="fill:#ffffff;fill-opacity:1;stroke:none"
         transform="matrix(1.0030239,2.6765354e-2,5.5408952e-2,0.9984637,61.8979,180.13404)"
         id="g4730">
        <path
           id="path4732"
           d="M 311.67757,561.44384 C 305.67236,590.27583 294.93899,752.25688 306.52839,756.08641 C 318.1178,759.91594 530.11618,770.09568 538.45448,764.04627 C 546.79276,757.99686 567.64388,562.73168 555.94127,556.04724 C 544.23866,549.36281 316.36852,535.52333 311.67757,561.44384 z "
           style="fill:#ffffff;fill-opacity:1;fill-rule:evenodd;stroke:none;stroke-width:10;stroke-linecap:butt;stroke-linejoin:miter;stroke-miterlimit:4;stroke-dasharray:none;stroke-opacity:1" />
        <path
           style="fill:#ffffff;fill-opacity:1;fill-rule:evenodd;stroke:none;stroke-width:10;stroke-linecap:butt;stroke-linejoin:miter;stroke-miterlimit:4;stroke-dasharray:none;stroke-opacity:1"
           d="M 232.5698,606.02946 C 226.56459,634.86146 215.83122,796.8425 227.42063,800.67203 C 239.01003,804.50156 451.00842,814.68131 459.3467,808.6319 C 467.68499,802.58249 488.53611,607.31729 476.8335,600.63286 C 465.1309,593.94842 237.26076,580.10896 232.5698,606.02946 z "
           id="path4734" />
        <path
           style="fill:#ffffff;fill-opacity:1;fill-rule:evenodd;stroke:none;stroke-width:9;stroke-linecap:butt;stroke-linejoin:miter;stroke-miterlimit:4;stroke-dasharray:none;stroke-opacity:1"
           d="M 236.37337,600.61339 C 236.37337,600.61339 296.42339,559.81628 319.47856,554.8583 C 342.53373,549.90032 331.55084,553.36866 331.55084,553.36866"
           id="path4736" />
        <path
           style="opacity:1;fill:#ffffff;fill-opacity:1;stroke:none;stroke-width:9;stroke-linecap:round;stroke-miterlimit:4;stroke-dasharray:none;stroke-dashoffset:28.7999978;stroke-opacity:1"
           d="M 347.62501,553.94435 C 346.7077,554.46678 314.59306,559.52984 314.06638,560.07902 C 300.83204,565.96636 268.20098,585.89656 266.67452,587.87036 C 265.57319,589.29442 269.00533,589.37013 279.47793,588.17581 C 287.34557,587.27859 300.04261,586.29704 307.7261,585.99236 L 321.71511,585.43766 L 321.71139,585.34399 C 322.45725,585.33191 371.35334,585.94162 405.76078,587.42346 C 412.81519,588.16412 422.56542,587.51844 429.16319,588.30767 C 436.12248,590.41672 440.30946,591.3311 438.03315,589.58223 C 437.92808,589.50149 437.82078,589.42399 437.67976,589.34604 C 459.10812,592.06802 475.34797,594.78257 476.83351,596.39401 C 477.11798,596.70256 478.47133,596.08107 479.84285,594.99241 C 487.22249,589.13467 517.65381,568.42481 525.36969,564.008 C 530.28782,561.19271 534.31639,558.57259 534.30332,558.21198 C 534.24894,556.71063 483.1801,553.99491 445.69762,552.63181 C 417.46823,552.43311 398.91626,551.92987 347.62501,553.94435 z "
           id="path4738"
           sodipodi:nodetypes="ccsscccccscsssscc" />
        <path
           id="path4740"
           d="M 479.52106,597.82532 C 479.52106,597.82532 529.23985,562.21348 548.11639,557.90309 C 566.99291,553.59269 557.9787,556.6137 557.9787,556.6137"
           style="fill:#ffffff;fill-opacity:1;fill-rule:evenodd;stroke:none;stroke-width:7.59591484;stroke-linecap:butt;stroke-linejoin:miter;stroke-miterlimit:4;stroke-dasharray:none;stroke-opacity:1" />
        <path
           style="fill:#ffffff;fill-opacity:1;fill-rule:evenodd;stroke:none;stroke-width:6.80364895;stroke-linecap:butt;stroke-linejoin:miter;stroke-miterlimit:4;stroke-dasharray:none;stroke-opacity:1"
           d="M 462.51147,809.14094 C 462.51147,809.14094 517.21175,784.33453 531.99954,770.91209 C 546.78737,757.48965 539.10064,763.48083 539.10064,763.48083"
           id="path4742" />
        <path
           style="opacity:1;fill:#ffffff;fill-opacity:1;stroke:none;stroke-width:9;stroke-linecap:round;stroke-miterlimit:4;stroke-dasharray:none;stroke-dashoffset:28.7999978;stroke-opacity:1"
           d="M 552.8125,562.15625 C 546.6723,562.33677 521.3145,576.05221 498.3125,591.625 L 485.40625,600.375 L 486.09375,613.71875 C 487.35546,638.37545 481.57899,709.06432 474.15625,760.53125 C 473.83264,761.24433 473.59941,762.18689 473.5625,763.09375 C 473.46189,765.56516 467.12103,796.17902 465.46875,802.15625 C 464.91378,804.16385 467.25165,803.40197 476.53125,798.59375 C 492.64831,790.24282 524.02139,772.22941 529.625,768.09375 L 533.71875,765.0625 L 533.875,765.0625 L 533.90625,764.90625 L 534.21875,764.6875 L 533.96875,764.65625 L 536.34375,753.5625 C 545.35107,711.45467 555.87499,610.54329 555,574.6875 C 554.71807,563.13474 554.51881,562.10611 552.8125,562.15625 z "
           id="path4744" />
        <path
           id="path4746"
           d="M 237.72165,614.80676 C 232.1811,641.57483 222.63976,791.89724 233.52705,795.41855 C 244.41434,798.93986 443.37356,807.80196 451.17789,802.1661 C 458.98219,796.53025 477.90846,615.29754 466.9056,609.12763 C 455.90274,602.95773 242.0385,590.74371 237.72165,614.80676 z "
           style="fill:#ffffff;fill-opacity:1;fill-rule:evenodd;stroke:none;stroke-width:10;stroke-linecap:butt;stroke-linejoin:miter;stroke-miterlimit:4;stroke-dasharray:none;stroke-opacity:1" />
        <path
           style="opacity:1;fill:#ffffff;fill-opacity:1;stroke:none;stroke-width:9;stroke-linecap:round;stroke-miterlimit:4;stroke-dasharray:none;stroke-dashoffset:28.7999978;stroke-opacity:1"
           d="M 553.11889,561.1184 C 546.97869,561.29892 521.62089,575.01436 498.61889,590.58715 L 485.71264,599.33715 L 486.40014,612.6809 C 487.66185,637.3376 481.88538,708.02647 474.46264,759.4934 C 474.13903,760.20648 473.9058,761.14904 473.86889,762.0559 C 473.76828,764.52731 467.42742,795.14117 465.77514,801.1184 C 465.22017,803.126 467.55804,802.36412 476.83764,797.5559 C 492.9547,789.20497 524.32778,771.19156 529.93139,767.0559 L 534.02514,764.02465 L 534.18139,764.02465 L 534.21264,763.8684 L 534.52514,763.64965 L 534.27514,763.6184 L 536.65014,752.52465 C 545.65746,710.41682 556.18138,609.50544 555.30639,573.64965 C 555.02446,562.09689 554.8252,561.06826 553.11889,561.1184 z "
           id="path4748" />
      </g>
      <path
         style="fill:#ffffff;fill-opacity:1;fill-rule:evenodd;stroke:none;stroke-width:7.72455597;stroke-linecap:butt;stroke-linejoin:miter;stroke-miterlimit:4;stroke-dasharray:none;stroke-opacity:1"
         d="M 352.55897,815.994 C 349.14021,838.10706 347.75703,962.81609 356.90032,966.00929 C 366.04359,969.2025 530.73382,981.43688 536.93533,976.94357 C 543.13685,972.45024 550.93459,822.27937 541.5814,816.88192 C 532.22822,811.48448 355.08405,796.0993 352.55897,815.994 z "
         id="path4750" />
    </g>
    <g
       id="g4570"
       transform="matrix(1.8582538,0,0,1.8582538,-541.10719,-1054.1132)"
       inkscape:export-filename="C:\Users\utente\Desktop\cassaforte.png"
       inkscape:export-xdpi="77"
       inkscape:export-ydpi="77">
      <g
         transform="matrix(1.0030239,2.6765354e-2,5.5408952e-2,0.9984637,61.8979,180.13404)"
         id="g2850">
        <path
           id="path2772"
           d="M 311.67757,561.44384 C 305.67236,590.27583 294.93899,752.25688 306.52839,756.08641 C 318.1178,759.91594 530.11618,770.09568 538.45448,764.04627 C 546.79276,757.99686 567.64388,562.73168 555.94127,556.04724 C 544.23866,549.36281 316.36852,535.52333 311.67757,561.44384 z "
           style="fill:none;fill-rule:evenodd;stroke:#000000;stroke-width:10;stroke-linecap:butt;stroke-linejoin:miter;stroke-miterlimit:4;stroke-dasharray:none;stroke-opacity:1" />
        <path
           style="fill:#ffffff;fill-opacity:1;fill-rule:evenodd;stroke:#000000;stroke-width:10;stroke-linecap:butt;stroke-linejoin:miter;stroke-miterlimit:4;stroke-dasharray:none;stroke-opacity:1"
           d="M 232.5698,606.02946 C 226.56459,634.86146 215.83122,796.8425 227.42063,800.67203 C 239.01003,804.50156 451.00842,814.68131 459.3467,808.6319 C 467.68499,802.58249 488.53611,607.31729 476.8335,600.63286 C 465.1309,593.94842 237.26076,580.10896 232.5698,606.02946 z "
           id="path2774" />
        <path
           style="fill:none;fill-rule:evenodd;stroke:#000000;stroke-width:9;stroke-linecap:butt;stroke-linejoin:miter;stroke-miterlimit:4;stroke-dasharray:none;stroke-opacity:1"
           d="M 236.37337,600.61339 C 236.37337,600.61339 296.42339,559.81628 319.47856,554.8583 C 342.53373,549.90032 331.55084,553.36866 331.55084,553.36866"
           id="path2776" />
        <path
           style="opacity:1;fill:url(#linearGradient4603);fill-opacity:1;stroke:none;stroke-width:9;stroke-linecap:round;stroke-miterlimit:4;stroke-dasharray:none;stroke-dashoffset:28.7999978;stroke-opacity:1"
           d="M 347.62501,553.94435 C 346.7077,554.46678 314.59306,559.52984 314.06638,560.07902 C 300.83204,565.96636 268.20098,585.89656 266.67452,587.87036 C 265.57319,589.29442 269.00533,589.37013 279.47793,588.17581 C 287.34557,587.27859 300.04261,586.29704 307.7261,585.99236 L 321.71511,585.43766 L 321.71139,585.34399 C 322.45725,585.33191 371.35334,585.94162 405.76078,587.42346 C 412.81519,588.16412 422.56542,587.51844 429.16319,588.30767 C 436.12248,590.41672 440.30946,591.3311 438.03315,589.58223 C 437.92808,589.50149 437.82078,589.42399 437.67976,589.34604 C 459.10812,592.06802 475.34797,594.78257 476.83351,596.39401 C 477.11798,596.70256 478.47133,596.08107 479.84285,594.99241 C 487.22249,589.13467 517.65381,568.42481 525.36969,564.008 C 530.28782,561.19271 534.31639,558.57259 534.30332,558.21198 C 534.24894,556.71063 483.1801,553.99491 445.69762,552.63181 C 417.46823,552.43311 398.91626,551.92987 347.62501,553.94435 z "
           id="path2782"
           sodipodi:nodetypes="ccsscccccscsssscc" />
        <path
           id="path2778"
           d="M 479.52106,597.82532 C 479.52106,597.82532 529.23985,562.21348 548.11639,557.90309 C 566.99291,553.59269 557.9787,556.6137 557.9787,556.6137"
           style="fill:none;fill-rule:evenodd;stroke:#000000;stroke-width:7.59591484;stroke-linecap:butt;stroke-linejoin:miter;stroke-miterlimit:4;stroke-dasharray:none;stroke-opacity:1" />
        <path
           style="fill:none;fill-rule:evenodd;stroke:#000000;stroke-width:6.80364895;stroke-linecap:butt;stroke-linejoin:miter;stroke-miterlimit:4;stroke-dasharray:none;stroke-opacity:1"
           d="M 462.51147,809.14094 C 462.51147,809.14094 517.21175,784.33453 531.99954,770.91209 C 546.78737,757.48965 539.10064,763.48083 539.10064,763.48083"
           id="path2780" />
        <path
           style="opacity:1;fill:#e3dedb;fill-opacity:1;stroke:none;stroke-width:9;stroke-linecap:round;stroke-miterlimit:4;stroke-dasharray:none;stroke-dashoffset:28.7999978;stroke-opacity:1"
           d="M 552.8125,562.15625 C 546.6723,562.33677 521.3145,576.05221 498.3125,591.625 L 485.40625,600.375 L 486.09375,613.71875 C 487.35546,638.37545 481.57899,709.06432 474.15625,760.53125 C 473.83264,761.24433 473.59941,762.18689 473.5625,763.09375 C 473.46189,765.56516 467.12103,796.17902 465.46875,802.15625 C 464.91378,804.16385 467.25165,803.40197 476.53125,798.59375 C 492.64831,790.24282 524.02139,772.22941 529.625,768.09375 L 533.71875,765.0625 L 533.875,765.0625 L 533.90625,764.90625 L 534.21875,764.6875 L 533.96875,764.65625 L 536.34375,753.5625 C 545.35107,711.45467 555.87499,610.54329 555,574.6875 C 554.71807,563.13474 554.51881,562.10611 552.8125,562.15625 z "
           id="path2784" />
        <path
           id="path2820"
           d="M 237.72165,614.80676 C 232.1811,641.57483 222.63976,791.89724 233.52705,795.41855 C 244.41434,798.93986 443.37356,807.80196 451.17789,802.1661 C 458.98219,796.53025 477.90846,615.29754 466.9056,609.12763 C 455.90274,602.95773 242.0385,590.74371 237.72165,614.80676 z "
           style="fill:url(#linearGradient4605);fill-opacity:1;fill-rule:evenodd;stroke:none;stroke-width:10;stroke-linecap:butt;stroke-linejoin:miter;stroke-miterlimit:4;stroke-dasharray:none;stroke-opacity:1" />
        <path
           style="opacity:1;fill:url(#linearGradient4607);fill-opacity:1;stroke:none;stroke-width:9;stroke-linecap:round;stroke-miterlimit:4;stroke-dasharray:none;stroke-dashoffset:28.7999978;stroke-opacity:1"
           d="M 553.11889,561.1184 C 546.97869,561.29892 521.62089,575.01436 498.61889,590.58715 L 485.71264,599.33715 L 486.40014,612.6809 C 487.66185,637.3376 481.88538,708.02647 474.46264,759.4934 C 474.13903,760.20648 473.9058,761.14904 473.86889,762.0559 C 473.76828,764.52731 467.42742,795.14117 465.77514,801.1184 C 465.22017,803.126 467.55804,802.36412 476.83764,797.5559 C 492.9547,789.20497 524.32778,771.19156 529.93139,767.0559 L 534.02514,764.02465 L 534.18139,764.02465 L 534.21264,763.8684 L 534.52514,763.64965 L 534.27514,763.6184 L 536.65014,752.52465 C 545.65746,710.41682 556.18138,609.50544 555.30639,573.64965 C 555.02446,562.09689 554.8252,561.06826 553.11889,561.1184 z "
           id="path2846" />
      </g>
      <path
         style="fill:#ffffff;fill-opacity:0.41015625;fill-rule:evenodd;stroke:#000000;stroke-width:7.72455597;stroke-linecap:butt;stroke-linejoin:miter;stroke-miterlimit:4;stroke-dasharray:none;stroke-opacity:1"
         d="M 352.55897,815.994 C 349.14021,838.10706 347.75703,962.81609 356.90032,966.00929 C 366.04359,969.2025 530.73382,981.43688 536.93533,976.94357 C 543.13685,972.45024 550.93459,822.27937 541.5814,816.88192 C 532.22822,811.48448 355.08405,796.0993 352.55897,815.994 z "
         id="path3320" />
    </g>
    <path
       style="fill:#ac9d93;fill-opacity:1;stroke:none;stroke-width:9;stroke-linecap:round;stroke-miterlimit:4;stroke-dasharray:none;stroke-dashoffset:28.7999978;stroke-opacity:1"
       d="M 213.05357,561.96429 C 209.576,561.9955 206.10224,562.11419 202.80357,562.30804 C 196.20624,562.69577 187.75772,563.28635 179.24107,563.99554 C 165.04665,565.17754 150.74829,566.65226 144.80357,567.93304 C 135.29201,569.98233 135.31585,565.95238 132.625,579.22322 C 144.57595,586.96799 140.21059,587.39754 135.90625,598.53572 C 134.1216,602.31582 136.01432,618.13637 147.79911,617.75001 C 148.23558,617.7357 148.6728,617.70738 149.14286,617.65626 C 149.61292,617.60514 153.71286,616.68759 150.61161,617.43751 C 148.3864,617.97559 151.63368,617.25641 152.17411,617.12501 C 153.25498,616.86221 154.41268,616.50363 155.64286,616.06251 C 162.01832,613.77635 167.51387,609.34837 169.98661,603.91518 C 170.39873,603.00965 171.2729,601.03266 171.25893,599.93751 C 171.21592,596.38828 168.28088,597.02597 168.5,595.81697 C 168.01699,589.97589 162.35036,591.13732 164.85714,588.17858 C 169.36411,582.85901 180.92342,584.03061 189.17857,585.52679 C 197.84157,587.09689 213.73891,597.57465 223.80357,602.21429 C 245.18659,612.14038 250.36992,579.32723 248.11607,565.30804 C 243.56545,563.1596 228.12306,561.82904 213.05357,561.96429 z "
       id="path4647"
       sodipodi:nodetypes="csssccssssssscssccc"
       inkscape:export-filename="C:\Users\utente\Desktop\cassaforte.png"
       inkscape:export-xdpi="77"
       inkscape:export-ydpi="77" />
    <g
       id="g4565"
       transform="matrix(0.8277071,-6.8444371e-2,6.8444371e-2,0.8277071,38.486686,-111.13038)"
       inkscape:export-filename="C:\Users\utente\Desktop\cassaforte.png"
       inkscape:export-xdpi="77"
       inkscape:export-ydpi="77">
      <path
         sodipodi:nodetypes="csccsccsccsc"
         id="path3403"
         d="M 102.33657,816.6872 C 85.186673,816.69707 67.878293,817.05269 60.617823,817.9997 C 49.001063,819.51493 50.507263,822.56108 45.961573,838.21845 C 59.533653,848.69762 54.263023,848.74902 47.992823,861.6872 C 45.010203,866.85326 43.361553,887.14089 67.680323,880.6247 C 78.183103,877.81049 84.304623,873.11921 87.367823,861.6872 C 87.367823,854.63026 77.503723,849.58255 80.805323,846.28095 C 86.741313,840.34496 102.36049,840.89871 112.11782,843.51318 C 122.3572,846.25682 140.40733,860.43369 152.02407,866.9997 C 176.69773,881.03231 186.18126,842.13945 184.86782,825.09345 C 178.40955,821.36477 152.01853,817.50476 130.80532,816.9997 C 122.85037,816.8103 112.62651,816.68128 102.33657,816.6872 z "
         style="opacity:1;fill:#d4aa00;fill-opacity:1;stroke:none;stroke-width:9;stroke-linecap:round;stroke-miterlimit:4;stroke-dasharray:none;stroke-dashoffset:28.7999978;stroke-opacity:1" />
      <path
         style="opacity:1;fill:url(#linearGradient4609);fill-opacity:1;stroke:none;stroke-width:9;stroke-linecap:round;stroke-miterlimit:4;stroke-dasharray:none;stroke-dashoffset:28.7999978;stroke-opacity:1"
         d="M 103.3378,817.4448 C 87.522823,817.45371 71.561703,817.77517 64.866373,818.6312 C 54.153843,820.00083 49.399773,820.39883 51.350933,836.90728 C 65.331053,856.73016 86.296873,834.19514 110.31001,839.33782 C 119.75238,841.81784 145.10013,859.34352 155.81264,865.27865 C 178.56574,877.96298 184.23957,840.18983 183.02837,824.78164 C 177.0728,821.41122 149.15259,818.1838 129.59058,817.72727 C 122.25483,817.55606 112.82679,817.43944 103.3378,817.4448 z "
         id="path3408"
         sodipodi:nodetypes="csccccsc" />
      <path
         style="opacity:1;fill:none;fill-opacity:1;stroke:#000000;stroke-width:5;stroke-linecap:round;stroke-miterlimit:4;stroke-dasharray:none;stroke-dashoffset:28.7999978;stroke-opacity:1"
         d="M 102.33657,816.6872 C 85.186673,816.69707 67.878293,817.05269 60.617823,817.9997 C 49.001063,819.51493 50.507263,822.56108 45.961573,838.21845 C 59.533653,848.69762 54.263023,848.74902 47.992823,861.6872 C 45.010203,866.85326 43.361553,887.14089 67.680323,880.6247 C 78.183103,877.81049 84.304623,873.11921 87.367823,861.6872 C 87.367823,854.63026 77.503723,849.58255 80.805323,846.28095 C 86.741313,840.34496 102.36049,840.89871 112.11782,843.51318 C 122.3572,846.25682 140.40733,860.43369 152.02407,866.9997 C 176.69773,881.03231 186.18126,842.13945 184.86782,825.09345 C 178.40955,821.36477 152.01853,817.50476 130.80532,816.9997 C 122.85037,816.8103 112.62651,816.68128 102.33657,816.6872 z "
         id="path3420"
         sodipodi:nodetypes="csccsccsccsc" />
    </g>
  </g>
</svg>
